<svg width="366" height="365" viewBox="0 0 366 365" fill="none" xmlns="http://www.w3.org/2000/svg">
<g clip-path="url(#clip0_210_6022)">
<rect width="364.276" height="364.276" transform="translate(0.862244)" fill="#485fe6"/>
<path d="M238.625 339.023L699.119 463.237" stroke="#F2F4F8" stroke-width="1.122"/>
<path d="M181.17 354.418L641.664 478.632" stroke="#F2F4F8" stroke-width="1.122"/>
<path d="M123.715 369.813L584.209 494.026" stroke="#F2F4F8" stroke-width="1.122"/>
<path d="M66.2599 385.208L526.754 509.421" stroke="#F2F4F8" stroke-width="1.122"/>
<path d="M8.80516 400.603L469.299 524.816" stroke="#F2F4F8" stroke-width="1.122"/>
<path d="M330.134 364.537L99.1172 426.437" stroke="#F2F4F8" stroke-width="1.122"/>
<path d="M282.701 350.305L52.8815 411.885" stroke="#F2F4F8" stroke-width="1.122"/>
<path d="M237.428 339.345L7.60851 400.925" stroke="#F2F4F8" stroke-width="1.122"/>
<path d="M353.485 308.246L813.979 432.46" stroke="#F2F4F8" stroke-width="1.122"/>
<path d="M296.03 323.641L756.524 447.855" stroke="#F2F4F8" stroke-width="1.122"/>
<path d="M238.576 339.036L699.07 463.25" stroke="#F2F4F8" stroke-width="1.122"/>
<path d="M559.904 302.97L328.887 364.87" stroke="#F2F4F8" stroke-width="1.122"/>
<path d="M512.471 288.738L282.652 350.318" stroke="#F2F4F8" stroke-width="1.122"/>
<path d="M467.198 277.778L237.379 339.358" stroke="#F2F4F8" stroke-width="1.122"/>
<path d="M-370.525 328.904L89.9692 453.118" stroke="#F2F4F8" stroke-width="1.122"/>
<path d="M-427.98 344.299L32.5144 468.513" stroke="#F2F4F8" stroke-width="1.122"/>
<path d="M-140.754 267.337L319.74 391.551" stroke="#F2F4F8" stroke-width="1.122"/>
<path d="M-198.209 282.732L262.285 406.946" stroke="#F2F4F8" stroke-width="1.122"/>
<path d="M-255.665 298.127L204.83 422.341" stroke="#F2F4F8" stroke-width="1.122"/>
<path d="M-313.12 313.522L147.375 437.736" stroke="#F2F4F8" stroke-width="1.122"/>
<path d="M-370.574 328.917L89.92 453.131" stroke="#F2F4F8" stroke-width="1.122"/>
<path d="M182.636 353.879L-47.1832 415.459" stroke="#F2F4F8" stroke-width="1.122"/>
<path d="M137.042 341.72L-93.9741 403.621" stroke="#F2F4F8" stroke-width="1.122"/>
<path d="M90.2513 329.882L-140.765 391.783" stroke="#F2F4F8" stroke-width="1.122"/>
<path d="M43.1393 316.848L-187.877 378.748" stroke="#F2F4F8" stroke-width="1.122"/>
<path fill-rule="evenodd" clip-rule="evenodd" d="M-112.664 38.0114C-112.328 37.9547 -111.991 37.902 -111.652 37.8532L-111.652 -141.663H-112.664L-112.664 38.0114ZM-101.349 37.6144C-101.008 37.6473 -100.669 37.6842 -100.331 37.725L-54.3221 -133.982L-55.2995 -134.244L-101.349 37.6144ZM-89.269 40.6101C-88.9545 40.7396 -88.6419 40.8727 -88.3312 41.0094L0.24118 -112.402L-0.635132 -112.908L-89.269 40.6101ZM-78.8065 46.8021C-78.5425 47.0147 -78.2811 47.2303 -78.0225 47.449L46.1856 -76.759L45.4701 -77.4745L-78.8065 46.8021ZM-70.5073 55.7315C-70.3152 56.0096 -70.1265 56.2901 -69.941 56.573L81.444 -30.8292L80.938 -31.7055L-70.5073 55.7315ZM-64.9619 67.1461C-64.8626 67.468 -64.7671 67.7917 -64.6754 68.1169L103.509 23.0521L103.247 22.0747L-64.9619 67.1461ZM-63.1125 79.4047C-63.1125 79.4267 -63.1124 79.4487 -63.1124 79.4707C-63.1124 79.7868 -63.1159 80.1021 -63.1229 80.4166H109.415V79.4047H-63.1125ZM-65.0303 92.0149C-65.1318 92.3375 -65.2372 92.6585 -65.3463 92.9778L101.734 137.747L101.996 136.77L-65.0303 92.0149ZM-70.5884 103.327C-70.782 103.605 -70.9788 103.881 -71.1789 104.154L79.477 191.136L79.9829 190.259L-70.5884 103.327ZM-79.033 112.32C-79.2991 112.532 -79.5679 112.74 -79.8393 112.945L44.16 236.944L44.8755 236.229L-79.033 112.32ZM-89.3685 118.372C-89.6838 118.501 -90.001 118.626 -90.3201 118.748L-1.80966 272.052L-0.93335 271.546L-89.3685 118.372ZM-100.559 121.243C-100.898 121.282 -101.238 121.317 -101.579 121.348L-55.2996 294.065L-54.3222 293.803L-100.559 121.243ZM-111.652 121.088C-111.991 121.039 -112.328 120.987 -112.664 120.93V301.484H-111.652V121.088ZM-121.911 118.263C-122.226 118.132 -122.539 117.997 -122.85 117.858L-169.994 293.803L-169.017 294.065L-121.911 118.263ZM-130.254 113.622C-130.53 113.425 -130.804 113.224 -131.075 113.021L-222.991 272.224L-222.115 272.73L-130.254 113.622ZM-137.565 106.992C-137.788 106.737 -138.008 106.48 -138.224 106.22L-268.989 236.985L-268.274 237.7L-137.565 106.992ZM-143.149 98.8395C-143.305 98.5405 -143.459 98.2395 -143.608 97.9363L-304.194 190.651L-303.688 191.527L-143.149 98.8395ZM-146.549 90.0548C-146.634 89.7289 -146.715 89.4015 -146.793 89.0726L-326.313 137.175L-326.051 138.152L-146.549 90.0548ZM-147.892 80.4166C-147.899 80.1021 -147.903 79.7868 -147.903 79.4707C-147.903 79.4487 -147.903 79.4267 -147.903 79.4047L-333.732 79.4047V80.4166L-147.892 80.4166ZM-147.059 71.0828L-326.313 23.0521L-326.051 22.0747L-146.845 70.0927C-146.92 70.4213 -146.992 70.7514 -147.059 71.0828ZM-144.106 62.0499L-304.299 -30.4379L-303.793 -31.3142L-143.671 61.1326C-143.819 61.4364 -143.964 61.7422 -144.106 62.0499ZM-122.123 40.7673C-122.437 40.9004 -122.75 41.0371 -123.061 41.1774L-169.994 -133.982L-169.017 -134.244L-122.123 40.7673ZM-131.161 45.9851L-222.507 -112.23L-223.383 -111.724L-131.969 46.6102C-131.702 46.3987 -131.433 46.1903 -131.161 45.9851ZM-138.408 52.945L-268.477 -77.1232L-269.192 -76.4077L-139.044 53.7399C-138.836 53.4724 -138.624 53.2074 -138.408 52.945Z" fill="#485fe6"/>
<path fill-rule="evenodd" clip-rule="evenodd" d="M119.252 100.049L157.523 61.9753H208.477L246.748 100.049L183 163.469L119.252 100.049ZM155.742 86.7008C170.796 71.6278 195.204 71.6278 210.258 86.7008L223.262 99.721L210.258 112.741C195.204 127.814 170.796 127.814 155.742 112.741L142.738 99.721L155.742 86.7008ZM167.063 100.14C167.063 108.711 174.198 115.658 183 115.658C191.802 115.658 198.937 108.711 198.937 100.14C198.937 91.5703 191.802 84.6228 183 84.6228C174.198 84.6228 167.063 91.5702 167.063 100.14ZM176.29 99.721C176.29 103.429 179.296 106.431 183 106.431C186.705 106.431 189.71 103.429 189.71 99.721C189.71 96.0135 186.705 93.0106 183 93.0106C179.296 93.0106 176.29 96.0135 176.29 99.721Z" fill="white"/>
<path fill-rule="evenodd" clip-rule="evenodd" d="M181.455 22.5047C181.557 22.5043 181.659 22.5041 181.761 22.5041C181.997 22.5041 182.232 22.5051 182.467 22.507L182.467 -330.264H181.455L181.455 22.5047ZM203.134 25.242C203.461 25.3275 203.787 25.4149 204.112 25.5042L295.42 -315.261L294.442 -315.523L203.134 25.242ZM224.517 34.1695C224.807 34.3415 225.097 34.5152 225.385 34.6905L402.954 -272.869L402.078 -273.375L224.517 34.1695ZM241.696 47.6563C241.932 47.8974 242.167 48.14 242.4 48.3839L493.539 -202.756L492.824 -203.471L241.696 47.6563ZM254.513 64.6376C254.68 64.9305 254.845 65.2246 255.009 65.5198L563.097 -112.355L562.592 -113.232L254.513 64.6376ZM262.702 84.8593C262.786 85.1858 262.868 85.5131 262.948 85.8411L606.682 -6.26213L606.42 -7.23952L262.702 84.8593ZM265.276 105.713C265.275 106.051 265.271 106.388 265.266 106.725H618.444V105.713H265.276ZM262.333 127.231C262.244 127.557 262.152 127.882 262.059 128.205L603.441 219.678L603.702 218.701L262.333 127.231ZM253.88 147.157C253.708 147.448 253.535 147.737 253.36 148.026L559.713 324.899L560.219 324.023L253.88 147.157ZM240.602 164.145C240.361 164.381 240.12 164.617 239.876 164.851L490.243 415.217L490.959 414.502L240.602 164.145ZM223.487 177.134C223.194 177.301 222.901 177.467 222.606 177.632L399.764 484.478L400.641 483.972L223.487 177.134ZM203.678 185.316C203.353 185.404 203.027 185.49 202.7 185.573L294.442 527.961L295.419 527.699L203.678 185.316ZM182.467 188.196C182.232 188.198 181.997 188.199 181.761 188.199C181.659 188.199 181.557 188.198 181.455 188.198V542.703H182.467V188.196ZM161.196 185.668C160.869 185.586 160.542 185.501 160.216 185.415L68.5015 527.699L69.4789 527.961L161.196 185.668ZM142.394 178.435C142.096 178.277 141.799 178.117 141.503 177.955L-35.948 485.308L-35.0716 485.814L142.394 178.435ZM124.823 165.96C124.576 165.731 124.329 165.501 124.084 165.268L-126.638 415.991L-125.923 416.706L124.823 165.96ZM110.672 148.853C110.493 148.567 110.317 148.279 110.142 147.99L-196.092 324.794L-195.586 325.671L110.672 148.853ZM101.711 129.044C101.614 128.721 101.519 128.398 101.426 128.073L-239.781 219.499L-239.519 220.477L101.711 129.044ZM98.2574 106.725C98.2518 106.388 98.2484 106.051 98.2469 105.713L-254.523 105.713V106.725L98.2574 106.725ZM100.786 84.9927L-239.781 -6.26213L-239.519 -7.23952L101.042 84.0136C100.955 84.3392 100.87 84.6655 100.786 84.9927ZM108.989 64.6734L-196.298 -111.584L-195.792 -112.461L109.495 63.7972C109.325 64.0882 109.156 64.3802 108.989 64.6734ZM160.761 25.1454C160.434 25.2294 160.108 25.3154 159.782 25.4032L68.5014 -315.261L69.4788 -315.523L160.761 25.1454ZM140.461 33.3274L-35.843 -272.039L-36.7193 -271.533L139.583 33.8309C139.874 33.6614 140.167 33.4935 140.461 33.3274ZM122.968 46.5115L-126.322 -202.779L-127.038 -202.064L122.251 47.2253C122.489 46.9859 122.728 46.748 122.968 46.5115Z" fill="#F2F4F8"/>
</g>
<defs>
<clipPath id="clip0_210_6022">
<rect width="364.276" height="364.276" fill="white" transform="translate(0.862244)"/>
</clipPath>
</defs>
</svg>
