<svg width="365" height="365" viewBox="0 0 365 365" fill="none" xmlns="http://www.w3.org/2000/svg">
<g clip-path="url(#clip0_210_5980)">
<rect width="364.276" height="364.276" fill="#485fe6"/>
<path d="M36.7364 291.465L497.23 415.678" stroke="#F2F4F8" stroke-width="1.122"/>
<path d="M-20.7184 306.859L439.776 431.073" stroke="#F2F4F8" stroke-width="1.122"/>
<path d="M-78.1734 322.254L382.321 446.468" stroke="#F2F4F8" stroke-width="1.122"/>
<path d="M-135.628 337.649L324.866 461.863" stroke="#F2F4F8" stroke-width="1.122"/>
<path d="M-193.083 353.044L267.411 477.258" stroke="#F2F4F8" stroke-width="1.122"/>
<path d="M267.742 354.009L36.7256 415.91" stroke="#F2F4F8" stroke-width="1.122"/>
<path d="M220.63 340.975L-10.3861 402.875" stroke="#F2F4F8" stroke-width="1.122"/>
<path d="M173.84 329.137L-55.98 390.717" stroke="#F2F4F8" stroke-width="1.122"/>
<path d="M128.245 316.978L-102.771 378.879" stroke="#F2F4F8" stroke-width="1.122"/>
<path d="M80.8127 302.747L-149.007 364.327" stroke="#F2F4F8" stroke-width="1.122"/>
<path d="M35.5397 291.787L-194.28 353.367" stroke="#F2F4F8" stroke-width="1.122"/>
<path d="M266.507 229.898L727.001 354.112" stroke="#F2F4F8" stroke-width="1.122"/>
<path d="M209.052 245.293L669.546 369.507" stroke="#F2F4F8" stroke-width="1.122"/>
<path d="M151.597 260.688L612.091 384.902" stroke="#F2F4F8" stroke-width="1.122"/>
<path d="M94.1418 276.083L554.636 400.297" stroke="#F2F4F8" stroke-width="1.122"/>
<path d="M36.6873 291.478L497.181 415.692" stroke="#F2F4F8" stroke-width="1.122"/>
<path d="M589.898 316.44L360.078 378.02" stroke="#F2F4F8" stroke-width="1.122"/>
<path d="M544.304 304.281L313.287 366.181" stroke="#F2F4F8" stroke-width="1.122"/>
<path d="M497.513 292.443L266.496 354.343" stroke="#F2F4F8" stroke-width="1.122"/>
<path d="M450.401 279.408L219.384 341.309" stroke="#F2F4F8" stroke-width="1.122"/>
<path d="M403.61 267.57L173.79 329.15" stroke="#F2F4F8" stroke-width="1.122"/>
<path d="M358.016 255.412L126.999 317.312" stroke="#F2F4F8" stroke-width="1.122"/>
<path d="M310.583 241.18L80.7634 302.76" stroke="#F2F4F8" stroke-width="1.122"/>
<path d="M265.31 230.22L35.4904 291.8" stroke="#F2F4F8" stroke-width="1.122"/>
<path fill-rule="evenodd" clip-rule="evenodd" d="M-217.048 23.572C-216.936 23.5715 -216.825 23.5713 -216.713 23.5713C-216.487 23.5713 -216.261 23.5722 -216.036 23.574V-214.181H-217.048V23.572ZM-195.373 26.3006C-195.046 26.386 -194.72 26.4733 -194.395 26.5625L-132.858 -203.097L-133.836 -203.359L-195.373 26.3006ZM-174.293 35.0388C-174.002 35.2094 -173.712 35.3818 -173.423 35.5558L-53.6798 -171.846L-54.5561 -172.352L-174.293 35.0388ZM-157.052 48.4447C-156.815 48.6847 -156.58 48.9262 -156.346 49.169L13.0085 -120.185L12.293 -120.901L-157.052 48.4447ZM-144.081 65.4956C-143.913 65.7881 -143.747 66.0817 -143.583 66.3764L64.2056 -53.5904L63.6996 -54.4667L-144.081 65.4956ZM-135.832 85.697C-135.747 86.0232 -135.664 86.3503 -135.583 86.6781L96.2701 24.5531L96.0082 23.5757L-135.832 85.697ZM-133.199 106.753C-133.2 107.091 -133.203 107.428 -133.209 107.765H104.898V106.753H-133.199ZM-136.136 128.28C-136.226 128.605 -136.317 128.93 -136.411 129.254L93.8141 190.942L94.076 189.965L-136.136 128.28ZM-144.59 148.216C-144.762 148.507 -144.935 148.796 -145.11 149.084L61.5801 268.417L62.086 267.54L-144.59 148.216ZM-157.873 165.212C-158.113 165.449 -158.355 165.684 -158.598 165.918L10.3925 334.908L11.108 334.193L-157.873 165.212ZM-174.996 178.206C-175.289 178.373 -175.583 178.539 -175.877 178.704L-56.26 385.887L-55.3837 385.381L-174.996 178.206ZM-194.815 186.389C-195.141 186.476 -195.467 186.562 -195.794 186.645L-133.836 417.876L-132.858 417.614L-194.815 186.389ZM-216.036 189.263C-216.261 189.265 -216.487 189.266 -216.713 189.266C-216.825 189.266 -216.936 189.266 -217.048 189.265V428.698H-216.036V189.263ZM-237.311 186.727C-237.639 186.645 -237.965 186.56 -238.291 186.474L-300.225 417.614L-299.248 417.876L-237.311 186.727ZM-256.425 179.319C-256.722 179.159 -257.019 178.997 -257.314 178.834L-377.131 386.364L-376.255 386.87L-256.425 179.319ZM-273.938 166.761C-274.185 166.531 -274.43 166.299 -274.674 166.066L-443.897 335.29L-443.182 336.005L-273.938 166.761ZM-287.93 149.715C-288.108 149.428 -288.283 149.14 -288.458 148.851L-495.017 268.109L-494.511 268.985L-287.93 149.715ZM-296.831 129.884C-296.927 129.561 -297.021 129.237 -297.114 128.912L-527.159 190.553L-526.897 191.53L-296.831 129.884ZM-300.218 107.765C-300.223 107.428 -300.227 107.091 -300.228 106.753H-537.981V107.765H-300.218ZM-297.683 86.0409L-527.159 24.5531L-526.897 23.5757L-297.427 85.0619C-297.515 85.3875 -297.6 85.7138 -297.683 86.0409ZM-289.48 65.7319L-495.169 -53.0227L-494.663 -53.899L-288.974 64.8556C-289.145 65.1466 -289.313 65.4387 -289.48 65.7319ZM-237.733 26.2174C-238.06 26.3015 -238.386 26.3875 -238.711 26.4754L-300.225 -203.097L-299.248 -203.359L-237.733 26.2174ZM-258.023 34.3995L-376.823 -171.368L-377.699 -170.863L-258.901 34.9031C-258.609 34.7335 -258.317 34.5657 -258.023 34.3995ZM-275.506 47.5787L-443.476 -120.391L-444.191 -119.676L-276.223 48.2925C-275.986 48.0531 -275.747 47.8152 -275.506 47.5787Z" fill="#F2F4F8"/>
<path fill-rule="evenodd" clip-rule="evenodd" d="M245.074 107.09L215.783 136.382L209.882 130.482L233.232 107.09L209.882 83.6987L215.783 77.7985L245.074 107.09ZM119.538 107.09L148.83 77.7985L154.73 83.6987L131.381 107.09L154.73 130.482L148.83 136.382L119.538 107.09ZM167.326 146.776L189.169 65.2449L197.254 67.4083L175.41 148.936L167.326 146.776Z" fill="white"/>
<path d="M245.074 107.09L246.028 108.044L246.982 107.09L246.028 106.136L245.074 107.09ZM215.783 136.382L214.829 137.336L215.783 138.29L216.737 137.336L215.783 136.382ZM209.882 130.482L208.928 129.529L207.975 130.483L208.928 131.436L209.882 130.482ZM233.232 107.09L234.187 108.043L235.138 107.09L234.187 106.137L233.232 107.09ZM209.882 83.6987L208.928 82.7447L207.975 83.6978L208.928 84.6518L209.882 83.6987ZM215.783 77.7985L216.737 76.8445L215.783 75.8905L214.829 76.8445L215.783 77.7985ZM119.538 107.09L118.584 106.136L117.63 107.09L118.584 108.044L119.538 107.09ZM148.83 77.7985L149.784 76.8445L148.83 75.8905L147.876 76.8445L148.83 77.7985ZM154.73 83.6987L155.685 84.6518L156.638 83.6978L155.684 82.7447L154.73 83.6987ZM131.381 107.09L130.426 106.137L129.474 107.09L130.426 108.043L131.381 107.09ZM154.73 130.482L155.684 131.436L156.638 130.483L155.685 129.529L154.73 130.482ZM148.83 136.382L147.876 137.336L148.83 138.29L149.784 137.336L148.83 136.382ZM167.326 146.776L166.023 146.427L165.673 147.731L166.978 148.08L167.326 146.776ZM189.169 65.2449L189.518 63.9416L188.215 63.5929L187.866 64.8958L189.169 65.2449ZM197.254 67.4083L198.557 67.7575L198.906 66.4539L197.602 66.105L197.254 67.4083ZM175.41 148.936L175.062 150.239L176.365 150.587L176.714 149.285L175.41 148.936ZM244.12 106.136L214.829 135.428L216.737 137.336L246.028 108.044L244.12 106.136ZM216.737 135.428L210.836 129.528L208.928 131.436L214.829 137.336L216.737 135.428ZM210.837 131.435L234.187 108.043L232.277 106.137L208.928 129.529L210.837 131.435ZM234.187 106.137L210.837 82.7455L208.928 84.6518L232.277 108.043L234.187 106.137ZM210.836 84.6527L216.737 78.7525L214.829 76.8445L208.928 82.7447L210.836 84.6527ZM214.829 78.7525L244.12 108.044L246.028 106.136L216.737 76.8445L214.829 78.7525ZM120.492 108.044L149.784 78.7525L147.876 76.8445L118.584 106.136L120.492 108.044ZM147.876 78.7525L153.776 84.6527L155.684 82.7447L149.784 76.8445L147.876 78.7525ZM153.775 82.7455L130.426 106.137L132.336 108.043L155.685 84.6518L153.775 82.7455ZM130.426 108.043L153.775 131.435L155.685 129.529L132.336 106.137L130.426 108.043ZM153.776 129.528L147.876 135.428L149.784 137.336L155.684 131.436L153.776 129.528ZM149.784 135.428L120.492 106.136L118.584 108.044L147.876 137.336L149.784 135.428ZM168.629 147.125L190.472 65.594L187.866 64.8958L166.023 146.427L168.629 147.125ZM188.82 66.5482L196.905 68.7116L197.602 66.105L189.518 63.9416L188.82 66.5482ZM195.95 67.0591L174.107 148.586L176.714 149.285L198.557 67.7575L195.95 67.0591ZM175.758 147.632L167.674 145.473L166.978 148.08L175.062 150.239L175.758 147.632Z" fill="white"/>
</g>
<defs>
<clipPath id="clip0_210_5980">
<rect width="364.276" height="364.276" fill="white"/>
</clipPath>
</defs>
</svg>
