<svg width="365" height="365" viewBox="0 0 365 365" fill="none" xmlns="http://www.w3.org/2000/svg">
<g clip-path="url(#clip0_210_6104)">
<rect width="364.276" height="364.276" transform="translate(0.724487)" fill="#485fe6"/>
<path fill-rule="evenodd" clip-rule="evenodd" d="M124.152 113.499C124.152 80.981 150.513 54.6202 183.031 54.6202C198.646 54.6202 213.622 60.8234 224.664 71.8653C235.706 82.9072 241.909 97.8832 241.909 113.499C241.909 146.016 215.549 172.377 183.031 172.377C150.513 172.377 124.152 146.016 124.152 113.499ZM189.339 145.041C189.339 148.525 186.515 151.349 183.031 151.349C179.547 151.349 176.722 148.525 176.722 145.041C176.722 141.557 179.547 138.732 183.031 138.732C186.515 138.732 189.339 141.557 189.339 145.041ZM187.236 79.8539H180.928C175.905 79.8427 171.085 81.833 167.533 85.3846C163.982 88.9362 161.992 93.7564 162.003 98.7791V100.882H170.414V98.7791C170.414 92.9724 175.121 88.2651 180.928 88.2651H187.236C193.043 88.2651 197.75 92.9724 197.75 98.7791C197.75 104.586 193.043 109.293 187.236 109.293H178.825V128.218H187.236V117.704C197.689 117.704 206.162 109.231 206.162 98.7791C206.162 88.327 197.689 79.8539 187.236 79.8539ZM132.563 113.499C132.563 141.371 155.158 163.966 183.031 163.966C210.903 163.966 233.498 141.371 233.498 113.499C233.498 85.6263 210.903 63.0313 183.031 63.0313C155.158 63.0313 132.563 85.6263 132.563 113.499Z" fill="white"/>
<path d="M224.664 71.8653L225.618 70.9113L224.664 71.8653ZM180.928 79.8539L180.925 81.203H180.928V79.8539ZM162.003 98.7791H163.352L163.352 98.7761L162.003 98.7791ZM162.003 100.882H160.654V102.231H162.003V100.882ZM170.414 100.882V102.231H171.763V100.882H170.414ZM178.825 109.293V107.944H177.476V109.293H178.825ZM178.825 128.218H177.476V129.568H178.825V128.218ZM187.236 128.218V129.568H188.586V128.218H187.236ZM187.236 117.704V116.355H185.887V117.704H187.236ZM183.031 53.271C149.768 53.271 122.803 80.2359 122.803 113.499H125.501C125.501 81.7261 151.258 55.9693 183.031 55.9693V53.271ZM225.618 70.9113C214.323 59.6164 199.004 53.271 183.031 53.271V55.9693C198.289 55.9693 212.921 62.0305 223.71 72.8193L225.618 70.9113ZM243.259 113.499C243.259 97.5254 236.913 82.2062 225.618 70.9113L223.71 72.8193C234.499 83.6082 240.56 98.241 240.56 113.499H243.259ZM183.031 173.726C216.294 173.726 243.259 146.762 243.259 113.499H240.56C240.56 145.271 214.803 171.028 183.031 171.028V173.726ZM122.803 113.499C122.803 146.762 149.768 173.726 183.031 173.726V171.028C151.258 171.028 125.501 145.271 125.501 113.499H122.803ZM183.031 152.698C187.26 152.698 190.688 149.27 190.688 145.041H187.99C187.99 147.78 185.77 150 183.031 150V152.698ZM175.373 145.041C175.373 149.27 178.802 152.698 183.031 152.698V150C180.292 150 178.072 147.78 178.072 145.041H175.373ZM183.031 137.383C178.802 137.383 175.373 140.812 175.373 145.041H178.072C178.072 142.302 180.292 140.082 183.031 140.082V137.383ZM190.688 145.041C190.688 140.812 187.26 137.383 183.031 137.383V140.082C185.77 140.082 187.99 142.302 187.99 145.041H190.688ZM180.928 81.203H187.236V78.5047H180.928V81.203ZM168.488 86.3386C171.785 83.0407 176.261 81.1926 180.925 81.203L180.931 78.5047C175.549 78.4927 170.385 80.6252 166.579 84.4306L168.488 86.3386ZM163.352 98.7761C163.342 94.1123 165.19 89.6364 168.488 86.3386L166.579 84.4306C162.774 88.2359 160.642 93.4006 160.654 98.7821L163.352 98.7761ZM163.352 100.882V98.7791H160.654V100.882H163.352ZM170.414 99.5328H162.003V102.231H170.414V99.5328ZM169.065 98.7791V100.882H171.763V98.7791H169.065ZM180.928 86.9159C174.376 86.9159 169.065 92.2273 169.065 98.7791H171.763C171.763 93.7175 175.866 89.6143 180.928 89.6143V86.9159ZM187.236 86.9159H180.928V89.6143H187.236V86.9159ZM199.1 98.7791C199.1 92.2273 193.788 86.9159 187.236 86.9159V89.6143C192.298 89.6143 196.401 93.7175 196.401 98.7791H199.1ZM187.236 110.642C193.788 110.642 199.1 105.331 199.1 98.7791H196.401C196.401 103.841 192.298 107.944 187.236 107.944V110.642ZM178.825 110.642H187.236V107.944H178.825V110.642ZM180.174 128.218V109.293H177.476V128.218H180.174ZM187.236 126.869H178.825V129.568H187.236V126.869ZM185.887 117.704V128.218H188.586V117.704H185.887ZM204.813 98.7791C204.813 108.486 196.943 116.355 187.236 116.355V119.054C198.434 119.054 207.511 109.976 207.511 98.7791H204.813ZM187.236 81.203C196.943 81.203 204.813 89.0721 204.813 98.7791H207.511C207.511 87.5819 198.434 78.5047 187.236 78.5047V81.203ZM183.031 162.617C155.904 162.617 133.913 140.626 133.913 113.499H131.214C131.214 142.116 154.413 165.315 183.031 165.315V162.617ZM232.149 113.499C232.149 140.626 210.158 162.617 183.031 162.617V165.315C211.648 165.315 234.847 142.116 234.847 113.499H232.149ZM183.031 64.3805C210.158 64.3805 232.149 86.3715 232.149 113.499H234.847C234.847 84.8812 211.648 61.6822 183.031 61.6822V64.3805ZM133.913 113.499C133.913 86.3715 155.904 64.3805 183.031 64.3805V61.6822C154.413 61.6822 131.214 84.8812 131.214 113.499H133.913Z" fill="white"/>
<path fill-rule="evenodd" clip-rule="evenodd" d="M575.639 22.5602C575.75 22.5597 575.862 22.5595 575.973 22.5595C576.199 22.5595 576.425 22.5604 576.651 22.5622V-195.629H575.639V22.5602ZM597.314 25.2888C597.64 25.3742 597.966 25.4615 598.291 25.5507L654.765 -185.213L653.788 -185.474L597.314 25.2888ZM618.341 33.9967C618.633 34.1671 618.923 34.3392 619.212 34.5131L729.122 -155.856L728.245 -156.362L618.341 33.9967ZM635.592 47.3903C635.829 47.6302 636.065 47.8714 636.299 48.1141L791.746 -107.333L791.031 -108.048L635.592 47.3903ZM648.588 64.4538C648.756 64.7462 648.922 65.0397 649.087 65.3344L839.821 -44.7862L839.315 -45.6625L648.588 64.4538ZM656.846 84.6517C656.931 84.9779 657.014 85.3049 657.095 85.6326L869.927 28.6045L869.665 27.6271L656.846 84.6517ZM659.488 105.741C659.487 106.079 659.483 106.416 659.478 106.753H878.021V105.741H659.488ZM656.55 127.268C656.461 127.593 656.369 127.918 656.276 128.242L867.604 184.867L867.866 183.89L656.55 127.268ZM648.096 147.204C647.925 147.495 647.752 147.784 647.577 148.072L837.325 257.623L837.831 256.747L648.096 147.204ZM634.814 164.2C634.573 164.437 634.331 164.672 634.088 164.906L789.246 320.064L789.961 319.348L634.814 164.2ZM617.69 177.194C617.398 177.362 617.104 177.528 616.809 177.692L726.645 367.933L727.521 367.427L617.69 177.194ZM597.871 185.377C597.546 185.464 597.22 185.55 596.893 185.634L653.787 397.968L654.765 397.706L597.871 185.377ZM576.651 188.251C576.425 188.253 576.199 188.254 575.973 188.254C575.862 188.254 575.75 188.254 575.639 188.253V408.124H576.651V188.251ZM555.375 185.715C555.048 185.633 554.721 185.548 554.395 185.462L497.525 397.706L498.502 397.968L555.375 185.715ZM536.209 178.278C535.912 178.118 535.615 177.957 535.32 177.793L425.302 368.351L426.178 368.857L536.209 178.278ZM518.705 165.709C518.458 165.478 518.213 165.246 517.97 165.013L362.604 320.378L363.32 321.093L518.705 165.709ZM504.738 148.674C504.561 148.387 504.385 148.099 504.211 147.81L314.602 257.281L315.108 258.157L504.738 148.674ZM495.845 128.839C495.749 128.516 495.655 128.192 495.563 127.867L284.424 184.442L284.685 185.419L495.845 128.839ZM492.469 106.753C492.463 106.416 492.46 106.079 492.459 105.741H274.268V106.753H492.469ZM495.003 85.0291L284.424 28.6045L284.686 27.6271L495.259 84.0501C495.172 84.3756 495.086 84.702 495.003 85.0291ZM503.206 64.72L314.459 -44.2531L314.965 -45.1294L503.712 63.8438C503.542 64.1348 503.373 64.4268 503.206 64.72ZM554.954 25.2056C554.627 25.2897 554.301 25.3757 553.975 25.4636L497.525 -185.213L498.502 -185.474L554.954 25.2056ZM534.664 33.3877L425.645 -155.438L424.769 -154.932L533.786 33.8912C534.077 33.7217 534.37 33.5538 534.664 33.3877ZM517.18 46.5668L363.044 -107.57L362.328 -106.854L516.463 47.2807C516.701 47.0413 516.94 46.8033 517.18 46.5668Z" fill="#F2F4F8"/>
<path d="M-157.494 282.358L303 406.572" stroke="#F2F4F8" stroke-width="1.122"/>
<path d="M-214.949 297.753L245.545 421.966" stroke="#F2F4F8" stroke-width="1.122"/>
<path d="M-272.404 313.148L188.09 437.361" stroke="#F2F4F8" stroke-width="1.122"/>
<path d="M-329.859 328.543L130.635 452.756" stroke="#F2F4F8" stroke-width="1.122"/>
<path d="M-387.314 343.938L73.1805 468.151" stroke="#F2F4F8" stroke-width="1.122"/>
<path d="M120.303 356.74L-110.714 418.641" stroke="#F2F4F8" stroke-width="1.122"/>
<path d="M73.5117 344.903L-157.505 406.803" stroke="#F2F4F8" stroke-width="1.122"/>
<path d="M26.4001 331.868L-204.617 393.769" stroke="#F2F4F8" stroke-width="1.122"/>
<path d="M72.2765 220.791L532.771 345.005" stroke="#F2F4F8" stroke-width="1.122"/>
<path d="M14.8214 236.186L475.315 360.4" stroke="#F2F4F8" stroke-width="1.122"/>
<path d="M-42.6336 251.581L417.86 375.795" stroke="#F2F4F8" stroke-width="1.122"/>
<path d="M-100.089 266.976L360.405 391.19" stroke="#F2F4F8" stroke-width="1.122"/>
<path d="M-157.543 282.371L302.951 406.585" stroke="#F2F4F8" stroke-width="1.122"/>
<path d="M533.967 344.685L304.148 406.265" stroke="#F2F4F8" stroke-width="1.122"/>
<path d="M488.373 332.526L258.553 394.106" stroke="#F2F4F8" stroke-width="1.122"/>
<path d="M442.458 319.17L211.442 381.07" stroke="#F2F4F8" stroke-width="1.122"/>
<path d="M395.667 307.333L165.848 368.913" stroke="#F2F4F8" stroke-width="1.122"/>
<path d="M350.073 295.174L119.057 357.075" stroke="#F2F4F8" stroke-width="1.122"/>
<path d="M303.282 283.336L72.2656 345.237" stroke="#F2F4F8" stroke-width="1.122"/>
<path d="M256.17 270.301L25.1536 332.202" stroke="#F2F4F8" stroke-width="1.122"/>
<path d="M209.379 258.464L-20.4402 320.044" stroke="#F2F4F8" stroke-width="1.122"/>
<path d="M163.785 246.305L-67.2314 308.206" stroke="#F2F4F8" stroke-width="1.122"/>
<path d="M116.353 232.074L-113.467 293.654" stroke="#F2F4F8" stroke-width="1.122"/>
<path d="M71.0795 221.113L-158.74 282.693" stroke="#F2F4F8" stroke-width="1.122"/>
</g>
<defs>
<clipPath id="clip0_210_6104">
<rect width="364.276" height="364.276" fill="white" transform="translate(0.724487)"/>
</clipPath>
</defs>
</svg>
