<svg width="500" height="500" viewBox="0 0 500 500" fill="none" xmlns="http://www.w3.org/2000/svg">
<g clip-path="url(#clip0_4_2)">
<path d="M249.969 0C111.937 0 -0.000191428 112.375 -0.000191428 251C-0.0565858 303.611 16.4221 354.909 47.107 397.645C77.792 440.38 121.131 472.392 171 489.156C183.5 491.469 188.062 483.719 188.062 477.062C188.062 471.094 187.844 455.312 187.719 434.375C118.187 449.531 103.5 400.719 103.5 400.719C92.1561 371.719 75.7498 364 75.7498 364C53.0311 348.437 77.4373 348.75 77.4373 348.75C102.531 350.531 115.719 374.625 115.719 374.625C138.031 412.969 174.25 401.906 188.5 395.469C190.75 379.25 197.219 368.188 204.375 361.906C148.875 355.563 90.4998 334.031 90.4998 237.875C90.4998 210.469 100.25 188.062 116.25 170.5C113.656 164.156 105.094 138.625 118.687 104.094C118.687 104.094 139.687 97.3437 187.437 129.812C207.836 124.238 228.885 121.401 250.031 121.375C271.178 121.417 292.227 124.265 312.625 129.844C360.344 97.375 381.312 104.125 381.312 104.125C394.937 138.687 386.375 164.187 383.812 170.531C399.844 188.094 409.5 210.5 409.5 237.906C409.5 334.312 351.062 355.531 295.375 361.75C304.344 369.5 312.344 384.812 312.344 408.219C312.344 441.781 312.031 468.844 312.031 477.062C312.031 483.781 316.531 491.594 329.219 489.125C379.039 472.321 422.324 440.297 452.966 397.572C483.609 354.847 500.06 303.578 500 251C500 112.375 388.062 0 249.969 0Z" fill="#2983E4"/>
</g>
<defs>
<clipPath id="clip0_4_2">
<rect width="500" height="500" fill="white"/>
</clipPath>
</defs>
</svg>
