<svg width="625" height="212" viewBox="0 0 625 212" fill="none" xmlns="http://www.w3.org/2000/svg">
<path d="M233.376 163C268.389 163 288.139 141.23 288.139 105.32C288.139 69.6338 268.389 48.0877 234.947 48.0877H197.915V163H233.376ZM211.83 150.656V60.4318H234.05C260.982 60.4318 274.673 77.4891 274.673 105.32C274.673 133.374 260.982 150.656 232.479 150.656H211.83Z" fill="white"/>
<path d="M408.438 105.544C408.438 69.1849 387.117 46.5166 357.715 46.5166C328.314 46.5166 306.992 69.1849 306.992 105.544C306.992 141.903 328.314 164.571 357.715 164.571C387.117 164.571 408.438 141.903 408.438 105.544ZM394.972 105.544C394.972 135.394 378.588 151.554 357.715 151.554C336.843 151.554 320.458 135.394 320.458 105.544C320.458 75.6936 336.843 59.534 357.715 59.534C378.588 59.534 394.972 75.6936 394.972 105.544Z" fill="white"/>
<path d="M524.305 83.9978C520.04 60.4318 501.188 46.5166 478.07 46.5166C448.669 46.5166 427.347 69.1849 427.347 105.544C427.347 141.903 448.669 164.571 478.07 164.571C501.188 164.571 520.04 150.656 524.305 127.09H510.39C507.023 143.025 493.332 151.554 478.07 151.554C457.198 151.554 440.814 135.394 440.814 105.544C440.814 75.6936 457.198 59.534 478.07 59.534C493.332 59.534 507.023 68.0627 510.39 83.9978H524.305Z" fill="white"/>
<path d="M609.634 76.8158H623.1C622.483 59.4779 606.491 46.5166 584.272 46.5166C562.277 46.5166 544.995 59.3096 544.995 78.6113C544.995 94.0976 556.217 103.3 574.172 108.462L588.312 112.502C600.432 115.868 611.205 120.132 611.205 131.579C611.205 144.147 599.085 152.452 583.15 152.452C569.459 152.452 557.339 146.392 556.217 133.374H541.853C543.2 152.227 558.462 165.02 583.15 165.02C609.634 165.02 624.671 150.432 624.671 131.803C624.671 110.257 604.247 103.3 592.352 100.157L580.681 97.0153C572.152 94.7709 558.462 90.2821 558.462 77.938C558.462 66.9405 568.561 58.8607 583.823 58.8607C597.738 58.8607 608.287 65.4817 609.634 76.8158Z" fill="white"/>
<path d="M33.379 72.7306C55.8133 50.4231 92.1867 50.4231 114.621 72.7306L134 92L114.621 111.269C92.1867 133.577 55.8134 133.577 33.379 111.269L14 92L33.379 72.7306Z" fill="black"/>
<path fill-rule="evenodd" clip-rule="evenodd" d="M0 92.0304L44 48H104L148 92.0304L74 166L0 92.0304ZM108 76C89.3048 57.2226 58.6954 57.2227 40.0001 76.0001L24.0001 92.0003L40.0001 108C58.6954 126.778 89.3048 126.778 108 108L124 92.0003L108 76Z" fill="#0CE466"/>
<path d="M74 106C66.2712 106 60 99.7351 60 92C60 84.2649 66.2712 78 74 78C81.7288 78 88 84.2649 88 92C88 99.7351 81.7288 106 74 106Z" fill="black"/>
<path fill-rule="evenodd" clip-rule="evenodd" d="M51 92C51 104.708 61.3026 115 74 115C86.6973 115 97 104.708 97 92C97 79.2923 86.6974 69 74 69C61.3026 69 51 79.2923 51 92ZM64.0002 92C64.0002 97.5251 68.4796 102 74.0002 102C79.5208 102 84.0002 97.5251 84.0002 92C84.0002 86.4749 79.5208 82 74.0002 82C68.4796 82 64.0002 86.4749 64.0002 92Z" fill="white"/>
</svg>
